{"title":"Run.All.Night.(2015)Rip.H263.720p[)(]Dts-5.1-(US).subtitled.mkv","uid":12096979,"size":5647007484,"categoryP":"video","categoryS":"hd___movies","magnet":"?xt=urn:btih:f0a40fc4baeadfcba46b24346b8f8f0274c3840c&amp;dn=Run.All.Night.%282015%29Rip.H263.720p%5B%29%28%5DDts-5.1-%28US%29.subtitled.mkv&amp;tr=udp%3A%2F%2Ftracker.openbittorrent.com%3A80&amp;tr=udp%3A%2F%2Fopen.demonii.com%3A1337&amp;tr=udp%3A%2F%2Ftracker.coppersurfer.tk%3A6969&amp;tr=udp%3A%2F%2Fexodus.desync.com%3A6969","seeders":0,"leechers":0,"uploader":"Tyr3ll","files":1,"time":1436142434,"description":"Run.All.Night.(2015)Rip.H263.720pR[)(]Dts-5.1-(US).subtitled.mkv\n\n\nSee imdb right here : http://www.imdb.com/title/tt2199571/\n\n\nSource :\nRun.All.Night.2015.1080p.BluRay.REMUX.AVC.DTS-HD.MA.7.1-RARBG\n\nSpecial thanks to team RARBG so.\n\n\nGeneral/Final purpose : Master dubbing as new Rip from the original source.\n\nFormat/contener : Mkv\n\nVideo codec : H263\n\nScreen resolution : 720p\n\nStreamable : yes\n\nLanguage : US language only with same subtitle as not forced.\n\nQuality : Normal/Good\n\nFinal size : 5,25 GB\n\n---------------------------------------------------------------------------\n\nSee below for complete details :\n\nGeneral\nUnique ID                      : N/A\nComplete name                  : Run.All.Night.(2015)Rip.H263.720p[)(]Dts-5.1-(US).subtitled.mkv\nFormat                         : Matroska\nFormat version                 : Version 4 / Version 2\nFile size                      : 5.26 GiB\nDuration                       : 1h 54mn\nOverall bit rate               : 6 584 Kbps\n\nMovie name                     : RARBG.COM - Run.All.Night.2015.1080p.BluRay.REMUX.AVC.DTS-HD.MA.7.1-RARBG aka movie source\n\nEncoded date                   : UTC 2015-07-06 11:00:51\nWriting application            : Lavf56.36.100\nWriting library                : Lavf56.36.100\n\nVideo\nID                             : 1\nFormat                         : H.263\nCodec ID                       : V_MS/VFW/FOURCC / H263\nDuration                       : 1h 54mn\nBit rate                       : 4 944 Kbps\nWidth                          : 1 280 pixels\nHeight                         : 720 pixels\nDisplay aspect ratio           : 16:9\nFrame rate mode                : Constant\nFrame rate                     : 23.976 fps\nBit depth                      : 8 bits\nCompression mode               : Lossy\nBits/(Pixel*Frame)             : 0.224\nStream size                    : 3.95 GiB (75%)\nWriting library                : Lavc56.45.100 h263p\nLanguage                       : English\nDefault                        : Yes\nForced                         : No\n\nAudio\nID                             : 2\nFormat                         : DTS\nFormat/Info                    : Digital Theater Systems\nMode                           : 16\nFormat settings, Endianness    : Big\nCodec ID                       : A_DTS\nDuration                       : 1h 54mn\nBit rate mode                  : Constant\nBit rate                       : 1 509 Kbps\nChannel(s)                     : 6 channels\nChannel positions              : Front: L C R, Side: L R, LFE\nSampling rate                  : 48.0 KHz\nBit depth                      : 24 bits\nCompression mode               : Lossy\nStream size                    : 1.21 GiB (23%)\nLanguage                       : English\nDefault                        : Yes\nForced                         : No\n\nText\nID                             : 3\nFormat                         : PGS\nCodec ID                       : S_HDMV/PGS\nCodec ID/Info                  : The same subtitle format used on BDs/HD-DVDs\nLanguage                       : English\nDefault                        : Yes\nForced                         : No\n\nMenu\n00:00:00.000                   : :Chapter 01\n00:09:02.750                   : :Chapter 02\n00:20:32.231                   : :Chapter 03\n00:29:24.220                   : :Chapter 04\n00:41:17.308                   : :Chapter 05\n00:50:29.776                   : :Chapter 06\n01:01:35.900                   : :Chapter 07\n01:10:56.585                   : :Chapter 08\n01:19:52.078                   : :Chapter 09\n01:34:14.398                   : :Chapter 10\n01:39:08.609                   : :Chapter 11\n01:48:38.386                   : :Chapter 12\n\n\nEnjoy and seed, please.\n\nTy\n\nHave a nice day and best regards","torrent":{"xt":"urn:btih:f0a40fc4baeadfcba46b24346b8f8f0274c3840c","amp;dn":"Run.All.Night.%282015%29Rip.H263.720p%5B%29%28%5DDts-5.1-%28US%29.subtitled.mkv","amp;tr":["udp%3A%2F%2Ftracker.openbittorrent.com%3A80","udp%3A%2F%2Fopen.demonii.com%3A1337","udp%3A%2F%2Ftracker.coppersurfer.tk%3A6969","udp%3A%2F%2Fexodus.desync.com%3A6969"],"infoHash":"f0a40fc4baeadfcba46b24346b8f8f0274c3840c","infoHashBuffer":{"type":"Buffer","data":[240,164,15,196,186,234,223,203,164,107,36,52,107,143,143,2,116,195,132,12]},"announce":[],"urlList":[]}}